<svg xmlns="http://www.w3.org/2000/svg">
  <symbol id="age-limit-18" viewBox="0 0 30 30">
    <g clip-path="url(#a)">
      <path
        fill="#CD1327"
        d="M26.617 30H3.381a3.38 3.38 0 0 1-3.38-3.386V3.383A3.381 3.381 0 0 1 3.383 0h23.236a3.381 3.381 0 0 1 3.384 3.383v23.231a3.381 3.381 0 0 1-3.381 3.381"
      />
      <path
        fill="#fff"
        d="M6.356 25.334v-14.91h-1.65L6.845 4.66h4.139v20.674H6.356zM25 16.864a2.126 2.126 0 0 0-.187-.65 1.406 1.406 0 0 0-.366-.46 3.54 3.54 0 0 0-.58-.378l-1.38-.65 1.38-.731c.36-.2.662-.488.878-.839a2.91 2.91 0 0 0 .257-1.38V5.12a.462.462 0 0 0-.462-.462H13.043a.462.462 0 0 0-.462.462v6.656c-.024.47.064.937.258 1.365.212.358.516.652.88.854l1.38.732-1.38.65c-.402.184-.73.498-.934.89a3.881 3.881 0 0 0-.23 1.517v7.088a.462.462 0 0 0 .463.462h11.579a.462.462 0 0 0 .462-.462v-7.088a6.623 6.623 0 0 0-.059-.92zm-4.545 4.2a.462.462 0 0 1-.462.462h-2.376a.462.462 0 0 1-.462-.462v-4.137a.462.462 0 0 1 .462-.462h2.376a.462.462 0 0 1 .462.462v4.137zm0-8.514a.462.462 0 0 1-.462.462h-2.376a.462.462 0 0 1-.462-.462V8.932a.462.462 0 0 1 .462-.462h2.376a.462.462 0 0 1 .462.462v3.618z"
      />
    </g>
    <defs>
      <clipPath id="a">
        <path fill="#fff" d="M0 0h30v30H0z" />
      </clipPath>
    </defs>
  </symbol>
  <symbol id="age-limit-19" viewBox="0 0 30 30">
    <path
      fill="#FF153C"
      d="M15.286 29.571c7.89 0 14.285-6.396 14.285-14.285C29.571 7.396 23.175 1 15.286 1 7.396 1 1 7.396 1 15.286S7.396 29.57 15.286 29.57z"
      opacity=".85"
    />
    <path
      fill="#fff"
      d="M7.653 21h6.69v-1.785h-2.085V9.9h-1.635c-.72.435-1.47.72-2.595.93v1.365h2.025v7.02h-2.4V21zm11.458.21c2.205 0 4.26-1.815 4.26-6.015 0-3.84-1.89-5.49-4.005-5.49-1.89 0-3.48 1.41-3.48 3.705 0 2.355 1.32 3.48 3.18 3.48.78 0 1.785-.495 2.385-1.32l-.12-1.5c-.54.915-1.23 1.26-1.86 1.26-.945 0-1.575-.63-1.575-1.92 0-1.38.675-2.055 1.515-2.055 1.08 0 1.935 1.005 1.935 3.84 0 3.18-1.065 4.23-2.37 4.23-.66 0-1.335-.345-1.755-.81l-1.17 1.335c.675.69 1.665 1.26 3.06 1.26z"
    />
  </symbol>
  <symbol id="banner-arrow-left" viewBox="0 0 70 70">
    <g
      stroke="currentColor"
      stroke-linecap="square"
      stroke-width="2"
      clip-path="url(#a)"
      opacity=".7"
    >
      <path d="M44.13 16.738L25.87 35m0 0l18.26 18.26" />
    </g>
    <defs>
      <clipPath id="a">
        <path fill="#fff" d="M0 0h70v70H0z" />
      </clipPath>
    </defs>
  </symbol>
  <symbol id="cancel-default" viewBox="0 0 50 50">
    <g clip-path="url(#a)">
      <path
        fill="currentColor"
        d="M34.115 35.88l-9.116-9.115-9.116 9.116a1.227 1.227 0 0 1-.884.369 1.25 1.25 0 0 1-.884-2.137l9.116-9.116-9.116-9.116a1.249 1.249 0 0 1 1.768-1.768l9.116 9.117 9.116-9.117a1.251 1.251 0 0 1 1.767 1.768l-9.116 9.116 9.117 9.116a1.248 1.248 0 0 1-.395 2.056 1.254 1.254 0 0 1-1.373-.288z"
      />
    </g>
    <defs>
      <clipPath id="a">
        <path fill="#fff" d="M0 0h50v50H0z" />
      </clipPath>
    </defs>
  </symbol>
  <symbol id="banner-pagination" viewBox="0 0 118 18">
    <path fill="#fff" d="M2 1h5v16H2zm9 0h5v16h-5z" />
    <circle cx="40" cy="9" r="6" fill="#898989" />
    <circle cx="64" cy="9" r="6" fill="#fff" />
    <circle cx="88" cy="9" r="6" fill="#898989" />
    <circle cx="112" cy="9" r="6" fill="#898989" />
  </symbol>
  <symbol id="cancel-hover" viewBox="0 0 50 50">
    <g clip-path="url(#a)">
      <path
        fill="#fff"
        d="M34.115 35.88l-9.116-9.115-9.116 9.116a1.227 1.227 0 0 1-.884.369 1.25 1.25 0 0 1-.884-2.137l9.116-9.116-9.116-9.116a1.249 1.249 0 0 1 1.768-1.768l9.116 9.117 9.116-9.117a1.251 1.251 0 0 1 1.767 1.768l-9.116 9.116 9.117 9.116a1.248 1.248 0 0 1-.395 2.056 1.254 1.254 0 0 1-1.373-.288z"
      />
    </g>
    <defs>
      <clipPath id="a">
        <path fill="#fff" d="M0 0h50v50H0z" />
      </clipPath>
    </defs>
  </symbol>
  <symbol id="banner-arrow-right" viewBox="0 0 70 70">
    <g
      stroke="currentColor"
      stroke-linecap="square"
      stroke-width="2"
      clip-path="url(#a)"
    >
      <path d="M25.87 16.738L44.13 35m0 0L25.87 53.26" />
    </g>
    <defs>
      <clipPath id="a">
        <path fill="#fff" d="M0 0h70v70H0z" />
      </clipPath>
    </defs>
  </symbol>
  <symbol id="check-filled-active" viewBox="0 0 26 26">
    <rect width="26" height="26" fill="#E93945" rx="13" />
    <g clip-path="url(#a)">
      <path
        stroke="#fff"
        stroke-width="2"
        d="M6.333 12.534l4.716 4.717 8.618-8.616"
      />
    </g>
    <defs>
      <clipPath id="a">
        <path fill="#fff" d="M0 0h20v20H0z" transform="translate(3 3)" />
      </clipPath>
    </defs>
  </symbol>
  <symbol id="check-default-active" viewBox="0 0 26 26">
    <g clip-path="url(#a)">
      <path
        stroke="#E93945"
        stroke-width="2"
        d="M4.091 10.627l5.85 6.79L23 5.848"
      />
    </g>
    <defs>
      <clipPath id="a">
        <path fill="#fff" d="M0 0h26v26H0z" />
      </clipPath>
    </defs>
  </symbol>
  <symbol id="check-default" viewBox="0 0 26 26">
    <g clip-path="url(#a)">
      <path
        stroke="#6B6B6B"
        stroke-width="2"
        d="M4.091 10.627l5.85 6.79L23 5.848"
      />
    </g>
    <defs>
      <clipPath id="a">
        <path fill="#fff" d="M0 0h26v26H0z" />
      </clipPath>
    </defs>
  </symbol>
  <symbol id="id-remove" viewBox="0 0 36 36">
    <g clip-path="url(#a)">
      <path
        fill="#A6A6A6"
        d="M18 30c6.627 0 12-5.373 12-12S24.627 6 18 6 6 11.373 6 18s5.373 12 12 12z"
      />
      <path d="M24.06 22.546l-4.545-4.545 4.545-4.545-1.515-1.515L18 16.486l-4.545-4.545-1.515 1.515 4.545 4.545-4.545 4.545 1.515 1.515L18 19.516l4.546 4.545 1.514-1.515z" />
    </g>
    <defs>
      <clipPath id="a">
        <path fill="#fff" d="M0 0h36v36H0z" />
      </clipPath>
    </defs>
  </symbol>
  <symbol id="facebook" viewBox="0 0 52 52">
    <rect width="52" height="52" fill="#2B2B2B" rx="26" />
    <g clip-path="url(#a)">
      <path
        fill="currentColor"
        d="M34.082 28.17l.964-6.285h-6.03v-4.079c0-1.72.842-3.395 3.543-3.395H35.3V9.059s-2.489-.424-4.867-.424c-4.967 0-8.214 3.01-8.214 8.46v4.79H16.7v6.286h5.52v15.194h6.795V28.171h5.067z"
      />
    </g>
    <defs>
      <clipPath id="a">
        <path
          fill="#fff"
          d="M0 0h21.71v34.73H0z"
          transform="translate(15.147 8.635)"
        />
      </clipPath>
    </defs>
  </symbol>
  <symbol
  id='live-default'
  fill="none"
  viewBox="0 0 34 34"
>
  <path
    fill="currentColor"
    stroke="currentColor"
    stroke-linejoin="round"
    stroke-width=".2"
    d="M11 23.37H6.517v-7.226h1.122v6.252h3.363L11 23.37zm1.484 0v-7.226h1.122v7.226h-1.122zm5.179 0l-2.577-7.226h1.217l1.966 5.962h.031l1.972-5.962h1.198l-2.58 7.226h-1.228zm9.873 0H22.95v-7.226h4.585v.967h-3.463v2.112h3.279v.926h-3.279v2.243h3.463v.977z"
  />
  <path
    stroke="currentColor"
    stroke-linecap="round"
    stroke-linejoin="round"
    stroke-width="1.2"
    d="M29.75 9.348H4.25a3.4 3.4 0 0 0-3.4 3.4v14.166a3.4 3.4 0 0 0 3.4 3.4h25.5a3.4 3.4 0 0 0 3.4-3.4V12.748a3.4 3.4 0 0 0-3.4-3.4zm-13.805-.139l-4.328-4.25m6.368 4.25l4.328-4.25"
    opacity=".9"
  />
</symbol>
  <symbol id="instagram" viewBox="0 0 52 52">
    <rect width="52" height="52" fill="#2B2B2B" rx="26" />
    <g clip-path="url(#a)">
      <path
        fill="currentColor"
        d="M26.007 17.707a8.273 8.273 0 0 0-8.286 8.285c0 4.587 3.7 8.286 8.286 8.286 4.586 0 8.286-3.7 8.286-8.285 0-4.587-3.7-8.286-8.286-8.286zm0 13.672a5.397 5.397 0 0 1-5.387-5.387 5.392 5.392 0 0 1 5.387-5.386 5.392 5.392 0 0 1 5.387 5.386 5.397 5.397 0 0 1-5.387 5.387zm10.557-14.011a1.928 1.928 0 0 1-1.932 1.933 1.933 1.933 0 1 1 1.933-1.933zm5.488 1.961c-.123-2.588-.714-4.882-2.61-6.771-1.89-1.89-4.183-2.48-6.772-2.61-2.668-.152-10.665-.152-13.333 0-2.582.122-4.875.713-6.772 2.603-1.896 1.89-2.48 4.182-2.61 6.771-.152 2.668-.152 10.666 0 13.334.123 2.588.714 4.882 2.61 6.77 1.897 1.89 4.183 2.482 6.772 2.611 2.668.152 10.665.152 13.333 0 2.589-.122 4.882-.713 6.771-2.61 1.89-1.89 2.481-4.183 2.61-6.771.152-2.668.152-10.659 0-13.327zm-3.447 16.19a5.454 5.454 0 0 1-3.072 3.071c-2.127.844-7.175.65-9.526.65-2.35 0-7.406.187-9.526-.65a5.453 5.453 0 0 1-3.072-3.072c-.844-2.127-.649-7.175-.649-9.526 0-2.35-.188-7.405.649-9.526a5.454 5.454 0 0 1 3.072-3.072c2.127-.843 7.175-.649 9.526-.649 2.35 0 7.406-.187 9.526.65a5.454 5.454 0 0 1 3.072 3.072c.844 2.127.649 7.175.649 9.526 0 2.35.195 7.405-.649 9.526z"
      />
    </g>
    <defs>
      <clipPath id="a">
        <path
          fill="#fff"
          d="M0 0h32.31v36.92H0z"
          transform="translate(9.847 7.54)"
        />
      </clipPath>
    </defs>
  </symbol>
  <symbol id="live-hover" viewBox="0 0 34 34">
    <g stroke="#fff" stroke-linejoin="round" clip-path="url(#a)">
      <path
        fill="#fff"
        stroke-width=".2"
        d="M11 23.37H6.517v-7.226h1.122v6.252h3.363L11 23.37zm1.484 0v-7.226h1.122v7.226h-1.122zm5.179 0l-2.577-7.226h1.217l1.966 5.962h.031l1.972-5.962h1.198l-2.58 7.226h-1.228zm9.873 0H22.95v-7.226h4.585v.967h-3.463v2.112h3.279v.926h-3.279v2.243h3.463v.977z"
      />
      <path
        stroke-linecap="round"
        stroke-width="1.2"
        d="M29.75 9.348H4.25a3.4 3.4 0 0 0-3.4 3.4v14.166a3.4 3.4 0 0 0 3.4 3.4h25.5a3.4 3.4 0 0 0 3.4-3.4V12.748a3.4 3.4 0 0 0-3.4-3.4zm-13.805-.139l-4.328-4.25m6.368 4.25l4.328-4.25"
        opacity=".9"
      />
    </g>
    <defs>
      <clipPath id="a">
        <path fill="#fff" d="M0 0h34v34H0z" />
      </clipPath>
    </defs>
  </symbol>
  <symbol id="free" viewBox="0 0 46 30">
    <rect width="46" height="30" fill="#32B032" rx="4" />
    <path
      fill="#fff"
      d="M22.266 16.453H9.546v1.016h5.72v4.797h1.203v-4.797h5.797v-1.016zm-11.078-1.89h9.421V9.155h-9.422v5.406zm1.203-.97v-3.437h7v3.438h-7zm23.718 5.923h-3.453v-2.641h2.172v-1.016h-8.625v-2.25H34.5V9.406h-9.547v1.016h8.344v2.172h-8.313v4.281h1.985v2.64H23.39v1.032h12.718v-1.031zm-7.937 0v-2.641h3.281v2.64h-3.281z"
    />
  </symbol>
  <symbol id="check-filled-default" viewBox="0 0 26 26">
    <rect width="26" height="26" fill="#565656" rx="13" />
    <g clip-path="url(#a)">
      <path
        stroke="#8D8D8D"
        stroke-width="2"
        d="M6.333 12.534l4.716 4.717 8.618-8.616"
      />
    </g>
    <defs>
      <clipPath id="a">
        <path fill="#fff" d="M0 0h20v20H0z" transform="translate(3 3)" />
      </clipPath>
    </defs>
  </symbol>
  <symbol id="logo2" viewBox="0 0 279 110">
    <g fill="#fff" clip-path="url(#a)">
      <path d="M78.08 106.961l13.937-43.09a1.192 1.192 0 0 1 2.033-.406c.184.215.285.487.285.769v42.727h22.124V42.015h-40.62L53.783 106.96l24.297.001zm49.218-64.945h23.271v64.945h-23.271V42.016zM0 61.4h16.73v45.565h22.51V61.399h16.729V42.016H0V61.4zm196.445-19.38v27.135a1.186 1.186 0 0 1-1.695 1.071 1.183 1.183 0 0 1-.557-.546l-13.76-27.66h-21.99v64.946h21.384V79.978a1.185 1.185 0 0 1 1.693-1.07c.242.115.439.307.558.545l13.696 27.509h21.993V42.016l-21.322.003zm48.547 39.021V66.853c0-3.59 1.435-6.229 4.895-7.133 3.709-.963 7.132 1.386 8.295 5.227l20.467-10.908c-8.066-14.637-23.156-14.438-29.196-13.911a31.297 31.297 0 0 0-18.121 7.176c-5.593 4.762-8.24 12.53-8.24 20.725v12.79c0 12.19 4.835 20.321 13.174 25.074 14.386 8.193 34.574 2.606 42.738-3.578V71.143h-21.132V90.6c-2.996 1.158-12.874 2.486-12.874-9.563M181.375 1.13h16.561v2.53h-16.561V1.13z" />
      <path d="M194.636 5.99l.615-2.433v-.024h-2.94l-.62 2.458h-4.35V3.533h-2.88v2.458h-3.289v2.455h16.977V5.991h-3.513zM184.04 18.622h13.896v-5.76h-16.561v2.447h13.9v.866h-13.897v5.785h16.781v-2.442H184.04v-.896zm-3.696-9.177h18.623v2.53h-18.623v-2.53zM226.78 1.13h16.618V3.8H226.78V1.13z" />
      <path d="M236.45 11.047V9.603h7.167v-2.62h-3.471l.657-3.579h-2.914l-.68 3.579h-4.458V3.404h-2.88v3.579h-3.289v2.62h6.873v1.444h-7.918v2.644h18.955v-2.644h-8.042zm-9.67 10.919h16.618v-7.193H226.78v7.193zm2.781-4.689h11.057v2.183h-11.057v-2.183zm-120.634-1.974h-2.933v6.66h16.78v-2.587H108.92l.007-4.073zm10.685-4.763h2.933V1.13h-16.55v2.727h13.617v1.604h-13.617v2.678h13.617v2.4z" />
      <path d="M114.779 11.686V9.03h-2.934v2.657h-6.877v2.586h18.507v-2.586h-8.696zm21.482 1.74v-2.733l-5.613.396V8.73h4.855V6.025h-4.855V3.86h5.285V1.133h-8.219v12.922l8.533-.626.014-.003zm2.25 2.661h2.91V.797h-2.911v5.237h-2.109V8.73h2.109l.001 7.358zM142.612.7h2.934v15.96h-2.934V.7zm-11.234 18.678v-4.29h-2.934v6.878h17.187v-2.588h-14.253zm27.682-13.01l6.542 9.372 2.335-1.86-6.115-8.493h5.688V2.723h-6.995V-.002h-3.102v2.725h-6.826V5.39h5.689l-6.071 8.479 2.305 1.863 6.55-9.365zm-9.366 12.927h18.741v2.668h-18.741v-2.668zm67.245-10.491h1.551v6.37h2.879V.694h-2.879v5.442h-1.554V.79H214.1v13.475h2.836l.003-5.46zm-4.291 4.645v-2.563l-6.008.386V8.517h5.775V1.13h-8.656v2.548h5.777v2.308h-5.777v8.195l8.889-.733zm.372 1.088h-.012l-9.13 5.703 1.637 2.295 7.493-4.738 7.465 4.743 1.654-2.305-9.107-5.698zM88.249 21.978l-3.298-9.493h-.243v9.493H81.41V1.164h3.32l-.023 9.228h.243l3.164-9.228H91.7L87.94 11.27l4.16 10.704-3.85.005zm5.163-11.96h7.161v2.598h-7.16v-2.598zM57.78 18.256h3.32v3.723h-3.32v-3.723zM39.935 7V1.164h3.12v20.808h-3.231l-3.27-12.62h-.2l.155 5.307v7.313h-3.097V1.164h3.584l2.92 11.474h.22L39.936 7zm27.81-5.902v20.88h-3.27V6.009h-2.19V4.028a3.215 3.215 0 0 0 2.278-.785 3.185 3.185 0 0 0 1.085-2.144l2.097-.001zM55.453 6.132v10.88c0 3.256-1.77 5.176-4.912 5.176-3.164 0-4.868-1.917-4.868-5.175V6.131c0-3.282 1.727-5.177 4.868-5.177 3.164 0 4.912 1.894 4.912 5.177zm-3.356-.535c0-1.08-.598-1.763-1.505-1.763a1.57 1.57 0 0 0-1.165.538 1.556 1.556 0 0 0-.368 1.225v11.936c0 1.08.62 1.763 1.505 1.763a1.568 1.568 0 0 0 1.475-1.112c.063-.211.081-.433.052-.65l.006-11.937z" />
    </g>
    <defs>
      <clipPath id="a">
        <path fill="#fff" d="M0 0h279v110H0z" />
      </clipPath>
    </defs>
  </symbol>
  <symbol id="logo" viewBox="0 0 132 42">
    <g clip-path="url(#a)">
      <mask
        id="b"
        width="132"
        height="34"
        x="0"
        y="4"
        maskUnits="userSpaceOnUse"
        style="mask-type:luminance"
      >
        <path fill="#fff" d="M0 4.879h131.511v32.247H0V4.879z" />
      </mask>
      <g fill="#fff" mask="url(#b)">
        <path d="M86.165 23.053l6.404 12.926h9.953V5.656h-9.528V18.28a.845.845 0 0 1-1.602.375L84.954 5.656h-9.953v30.321h9.557v-12.55a.844.844 0 0 1 1.602-.374M60.263 5.656h10.45v30.321h-10.45V5.657zm45.347 12.291v5.588c0 5.436 2.051 9.366 6.093 11.68 6.45 3.691 15.738 1.412 19.809-1.598v-14.11h-9.438v8.873l-.18.071a5.384 5.384 0 0 1-4.633-.352 5.033 5.033 0 0 1-1.845-4.459v-6.253a3.375 3.375 0 0 1 2.524-3.659 3.501 3.501 0 0 1 4.158 2.354l9.143-4.904a12.606 12.606 0 0 0-11.622-6.3c-.617 0-1.217.03-1.788.081a14.438 14.438 0 0 0-8.412 3.347 12.527 12.527 0 0 0-3.801 9.64M25.93 5.656H0v8.877h7.8v21.45h10.316v-21.45h7.807l.008-8.877zM37.899 36.32l6.534-20.302a.845.845 0 0 1 1.65.258v20.046h9.909V6H37.256L27 36.32h10.899z" />
      </g>
    </g>
    <defs>
      <clipPath id="a">
        <path fill="#fff" d="M0 0h132v42H0z" />
      </clipPath>
    </defs>
  </symbol>
  <symbol id="paramount-default" viewBox="0 0 112 34">
    <g
      fill="currentColor"
      fill-rule="evenodd"
      clip-path="url(#a)"
      clip-rule="evenodd"
    >
      <path d="M29.666 11.452c0-4.392-4.645-6.493-10.166-6.493-5.9 0-11.305 2.602-13.29 6.667a7.68 7.68 0 0 0-.85 3.509 5.274 5.274 0 0 0 .85 2.954 5.212 5.212 0 0 0 4.615 2.047c2.717 0 4.907-1.492 4.907-4.123a.724.724 0 0 0-.817-.73c-.702 0-.876.497-.85.73a3.277 3.277 0 0 1-3.298 3.713c-2.424 0-3.447-2.076-3.447-4.298 0-4.533 3.418-7.515 6.953-8.831a14.326 14.326 0 0 1 5.199-.907c4.032 0 7.303 1.55 7.303 5.667a6.894 6.894 0 0 1-6.375 6.666l.142-.467a24.597 24.597 0 0 1 3.009-7.367 3.16 3.16 0 0 1 .38-.527l-.205-.233a5.88 5.88 0 0 0-.877.614c-6.658 5.177-6.865 19.798-15.716 19.798a4.55 4.55 0 0 1-.905-.058 3.098 3.098 0 0 1-2.834-3.275c0-.322.118-.79.118-1.053a.893.893 0 0 0-.877-.936h-.078c-.79 0-1.11.643-1.133 1.52-.058 2.602 1.841 4.094 4.79 4.392.322 0 .644.03.992.03 6.924 0 11.16-5.235 12.971-11.58a16.935 16.935 0 0 0 2.692-.585c3.213-.877 6.8-3.042 6.8-6.843m38.799 6.509a15.939 15.939 0 0 1-2.6 6.406c-.526.79-.992.992-1.401.992-.584 0-.73-.468-.643-1.133a15.619 15.619 0 0 1 2.482-5.935c.643-.877 1.05-1.228 1.548-1.228.468 0 .614.41.614.907M41.54 24.694c-.35 0-.613-.117-.613-.585a10.838 10.838 0 0 1 2.248-5.028 4.37 4.37 0 0 1 3.213-2.045l-1.547 3.45c-1.169 2.66-2.366 4.208-3.301 4.208zm-15.187 0c-.35 0-.583-.117-.583-.585a11.475 11.475 0 0 1 2.248-5.028 4.37 4.37 0 0 1 3.213-2.045l-1.519 3.45c-1.169 2.6-2.424 4.208-3.359 4.208zM95.54 12.973h-2.454l-.526 1.286-.963 2.163h-1.133l-.35.731h1.197l-1.431 3.128c-1.023 2.222-2.6 4.392-3.505 4.392-.204 0-.321-.088-.321-.292.033-.325.122-.64.263-.935.292-.673.76-1.638 1.11-2.367a11.786 11.786 0 0 0 1.314-3.42 1.365 1.365 0 0 0-1.489-1.432 4.349 4.349 0 0 0-3.067 1.666l.613-1.462h-2.311l-1.87 4.238c-.73 1.503-2.249 3.983-3.212 3.983-.204 0-.292-.118-.292-.322a1.77 1.77 0 0 1 .142-.525c.087-.176 1.197-2.807 1.197-2.807l2.014-4.648h-2.453l-1.984 4.533c-.583 1.403-2.125 3.771-3.125 3.771a.307.307 0 0 1-.32-.167.304.304 0 0 1-.03-.124v-.058c.048-.357.157-.703.322-1.023l1.023-2.28 2.125-4.648H73.57l-.468 1.053a2.395 2.395 0 0 1-1.956 1.55c-.468 0-.701-.176-.788-.352a2.416 2.416 0 0 0-2.6-2.397 5.223 5.223 0 0 0-4.41 2.66 11.848 11.848 0 0 0-1.46 3.217c-.875 1.432-1.782 2.55-2.512 2.55a.284.284 0 0 1-.321-.322c.058-.344.167-.678.321-.992l1.607-3.42a6.98 6.98 0 0 0 .76-2.426 1.238 1.238 0 0 0-1.344-1.257 4.896 4.896 0 0 0-3.417 1.754c.048-.17.068-.348.058-.526a1.094 1.094 0 0 0-1.255-1.228 4.335 4.335 0 0 0-3.125 1.754l.642-1.578h-2.22l-1.899 4.267c-.905 1.983-2.336 3.975-3.153 3.975-.176 0-.292-.088-.292-.322.124-.596.32-1.175.584-1.724l2.512-5.666c.175-.44-1.023-.709-2.542-.709A7.062 7.062 0 0 0 41.939 18a3.892 3.892 0 0 1-1.752 1.023c-.142 0-.204-.088-.204-.176 0-.351.817-1.314.817-2.075 0-.352-.176-.556-.643-.556a4.344 4.344 0 0 0-2.716 1.724l.643-1.55h-2.19l-1.859 4.263c-.905 1.984-2.394 4.093-3.183 4.093-.204 0-.321-.117-.321-.351a6.806 6.806 0 0 1 .643-1.812l2.482-5.667c.175-.439-1.023-.708-2.54-.708a7.429 7.429 0 0 0-5.578 3.098 9.258 9.258 0 0 0-2.19 4.94 1.685 1.685 0 0 0 1.81 1.9 4.27 4.27 0 0 0 3.096-1.9 3.01 3.01 0 0 0-.088.497c0 .82.322 1.403 1.315 1.403a4.348 4.348 0 0 0 2.954-1.897l-.73 1.724h2.366l2.33-5.287c.76-1.724 1.635-2.601 1.869-2.601.088 0 .141.03.141.088 0 .175-.38.673-.38 1.11 0 .438.235.79.906.79a3.216 3.216 0 0 0 1.577-.556 8.758 8.758 0 0 0-2.015 4.736 1.66 1.66 0 0 0 1.81 1.9 4.675 4.675 0 0 0 3.126-2.046 3.974 3.974 0 0 0-.058.585 1.342 1.342 0 0 0 1.373 1.462c1.023 0 1.81-.643 2.833-1.87l-.76 1.7h2.454l2.22-5.057c.964-2.192 2.308-3.362 2.95-3.362.141-.03.292.118.321.264v.058a3.01 3.01 0 0 1-.204.73l-3.213 7.396h2.512l2.248-5.144c.992-2.222 2.074-3.304 2.862-3.304.262 0 .35.118.35.38-.02.283-.088.56-.204.819l-2.19 4.675a4 4 0 0 0-.38 1.402c0 .731.38 1.345 1.489 1.345 1.401 0 2.482-1.081 3.709-2.661v.322a2.407 2.407 0 0 0 2.692 2.397c2.248 0 4.03-1.52 5.14-3.976.403-.87.67-1.796.788-2.748.245.12.517.169.788.142.369.017.734-.075 1.051-.264l-.38.85c-.437.935-.935 1.958-1.314 2.834a4.534 4.534 0 0 0-.438 1.637 1.39 1.39 0 0 0 1.489 1.52 5.059 5.059 0 0 0 3.33-2.25c-.06.268-.09.543-.089.818 0 .731.234 1.432 1.227 1.432a4.151 4.151 0 0 0 2.975-1.93l-.73 1.7h2.454l1.957-4.472c1.109-2.514 2.22-4.034 3.27-4.034a.348.348 0 0 1 .35.292v.087c-.28.95-.673 1.862-1.168 2.719a51.02 51.02 0 0 0-1.133 2.513 4.154 4.154 0 0 0-.438 1.666 1.258 1.258 0 0 0 1.373 1.374 5.308 5.308 0 0 0 3.62-2.426 4.798 4.798 0 0 0-.262 1.55 1.914 1.914 0 0 0 2.045 2.133 3.874 3.874 0 0 0 2.22-.731 10.463 10.463 0 0 0 2.307-2.513l-.437-.41a9.579 9.579 0 0 1-1.899 2.105c-.35.303-.792.478-1.255.498-.526 0-.85-.264-.85-.907a8.442 8.442 0 0 1 .79-2.719s.67-1.52 1.314-2.952c.525-1.228 1.051-2.397 1.133-2.63h1.607l.321-.732H94.02l1.52-3.446zm10.768 3.46l2.229-5.189h-2.641l-2.256 5.19h-5.587l-.949 2.164h5.609l-2.226 5.13h2.641l2.255-5.13h5.609l.919-2.165h-5.603z" />
    </g>
    <defs>
      <clipPath id="a">
        <path fill="#fff" d="M0 0h111.92v34H0z" />
      </clipPath>
    </defs>
  </symbol>
  <symbol id="profile-edit-lock" viewBox="0 0 60 60">
    <g clip-path="url(#a)">
      <path
        fill="#fff"
        d="M45.995 47.864H13.33V23.365h32.665v24.499zM29.712 31.732a2.4 2.4 0 0 0-2.4 2.4v3.753a2.4 2.4 0 0 0 2.4 2.4h.085a2.4 2.4 0 0 0 2.4-2.4v-3.752a2.4 2.4 0 0 0-2.4-2.4l-.085-.001z"
      />
      <path
        stroke="#fff"
        stroke-width="4"
        d="M29.754 10.969a9.77 9.77 0 0 1 9.77 9.77v6.107c0 5.4-19.294.918-19.54 0v-6.107a9.77 9.77 0 0 1 9.77-9.77z"
      />
    </g>
    <defs>
      <clipPath id="a">
        <path fill="#fff" d="M0 0h60v60H0z" />
      </clipPath>
    </defs>
  </symbol>
  <symbol id="original" viewBox="0 0 115 20">
    <g clip-path="url(#a)">
      <path
        fill="#fff"
        d="M40.386 5.57v8.768c0 3.528-1.896 5.591-5.27 5.591-3.373 0-5.206-2.063-5.206-5.59v-8.77C29.91 2.063 31.77 0 35.117 0c3.395 0 5.269 2.063 5.269 5.57zm-3.52-.578c0-1.217-.664-2-1.687-2a1.768 1.768 0 0 0-1.321.606 1.783 1.783 0 0 0-.428 1.394v9.944a1.75 1.75 0 0 0 .994 1.845 1.731 1.731 0 0 0 2.04-.448 1.747 1.747 0 0 0 .402-1.397V4.992zm13.177 14.706l-1.461-6.765h-2.27v6.765h-3.478V.21h5.206c3.166 0 5.062 1.711 5.062 5.011v2.414a5.17 5.17 0 0 1-1.562 3.877l1.998 8.189-3.495-.002zm-2.582-9.652c1.353 0 2.104-.743 2.104-2.268V5.427c0-1.506-.77-2.268-2.104-2.268h-1.104v6.888l1.104-.001zM55.599.209h3.478v19.49H55.6V.208zm9.676 19.719c-2.145-.02-3.851-1.65-3.851-4.703V5.57c0-3.528 1.86-5.57 5.29-5.57 3.354 0 5.082 1.837 5.082 4.703v2.6h-3.454V4.97c0-1.423-.664-1.98-1.665-1.98a1.77 1.77 0 0 0-1.298.608 1.786 1.786 0 0 0-.429 1.372v9.965c0 1.423.73 2 1.708 2a1.753 1.753 0 0 0 1.255-.56 1.77 1.77 0 0 0 .472-1.296v-3.032h-1.75V9.2h5.166v10.501h-2.896l-.253-1.572h-.25a2.885 2.885 0 0 1-1.248 1.448 2.866 2.866 0 0 1-1.876.347M74.116.209h3.478v19.49h-3.478V.208zm12.979 5.507V.21h3.29V19.7H86.97L83.408 7.921h-.188l.125 4.434v7.336h-3.31V.209h3.811l3.166 10.498h.209l-.126-4.99zm13.151 9.961l-4.145-.041-.624 4.062H91.89L95.66.21h5.123l3.707 19.49h-3.644l-.601-4.022zm-.458-2.95l-.895-5.918-.604-3.507h-.229l-.583 3.507-.916 5.919h3.227zm14.659 4.023v2.95h-8.081V.209h3.479v16.539l4.602.002z"
      />
      <path
        fill="#FF153C"
        d="M18.181 0l-4.295 13.268a.367.367 0 0 1-.628.128.37.37 0 0 1-.088-.24V0H0v5.969h6.365v14.038h12.507L25.674 0H18.18z"
      />
    </g>
    <defs>
      <clipPath id="a">
        <path fill="#fff" d="M0 0h114.44v20H0z" />
      </clipPath>
    </defs>
  </symbol>
  <symbol id="profile" viewBox="0 0 40 40">
    <g clip-path="url(#a)">
      <path d="M37.42 0H2.58A2.58 2.58 0 0 0 0 2.58v34.84A2.58 2.58 0 0 0 2.58 40h34.84A2.58 2.58 0 0 0 40 37.42V2.58A2.58 2.58 0 0 0 37.42 0z" />
      <path
        fill="#FF002F"
        d="M3.226 14.194V6.452c0-.357.289-.645.645-.645h16.774c.357 0 .645.288.645.645v4.838l2.722-5.14a.645.645 0 0 1 .57-.343h12.572c.445 0 .756.439.609.858L27.571 35.698a.645.645 0 0 1-.609.431H9.677a.645.645 0 0 1-.645-.645v-20a.645.645 0 0 0-.645-.645H3.871a.645.645 0 0 1-.645-.645z"
      />
      <path
        fill="#fff"
        fill-rule="evenodd"
        d="M20.968 21.895a2.58 2.58 0 1 1 0-2.5 2.58 2.58 0 0 1 4.839 1.25 2.58 2.58 0 0 1-4.84 1.25z"
        clip-rule="evenodd"
      />
      <path
        fill="#030303"
        fill-rule="evenodd"
        d="M18.71 21.936a1.29 1.29 0 1 0 0-2.58 1.29 1.29 0 0 0 0 2.58zm4.516 0a1.29 1.29 0 1 0 0-2.58 1.29 1.29 0 0 0 0 2.58z"
        clip-rule="evenodd"
      />
      <path
        fill="#fff"
        fill-rule="evenodd"
        d="M19.355 26.673a1.29 1.29 0 0 0 1.271-1.51l-2.31.143a.648.648 0 0 0-.252.067v.01c0 .712.578 1.29 1.29 1.29z"
        clip-rule="evenodd"
      />
      <path stroke="#000" stroke-linecap="round" d="M17.071 25.46l7.744-.595" />
      <path
        fill="#FF305B"
        fill-rule="evenodd"
        d="M27.742 23.55a.323.323 0 1 1-.645 0 .323.323 0 0 1 .645 0zm1.935 0a.323.323 0 1 1-.645 0 .323.323 0 0 1 .645 0zm-1.613 1.612a.323.323 0 1 0 0-.645.323.323 0 0 0 0 .645zM11.613 23.55a.323.323 0 1 0 .645 0 .323.323 0 0 0-.645 0zm1.935 0a.323.323 0 1 0 .645 0 .323.323 0 0 0-.645 0zm-.322 1.612a.323.323 0 1 1 0-.645.323.323 0 0 1 0 .645z"
        clip-rule="evenodd"
      />
    </g>
    <defs>
      <clipPath id="a">
        <path fill="#fff" d="M0 0h40v40H0z" />
      </clipPath>
    </defs>
  </symbol>
  <symbol id="play" viewBox="0 0 72 72">
    <g clip-path="url(#a)">
      <path
        fill-opacity=".43"
        d="M36 66c16.569 0 30-13.431 30-30C66 19.431 52.569 6 36 6 19.431 6 6 19.431 6 36c0 16.569 13.431 30 30 30z"
      />
      <path
        stroke="#fff"
        stroke-width="1.5"
        d="M36 65.25c16.154 0 29.25-13.096 29.25-29.25S52.154 6.75 36 6.75 6.75 19.846 6.75 36 19.846 65.25 36 65.25z"
      />
      <path
        fill="#fff"
        d="M46.729 36.32a.2.2 0 0 1 0 .339l-15.423 9.639a.2.2 0 0 1-.306-.17V26.85a.2.2 0 0 1 .306-.17l15.423 9.639z"
      />
    </g>
    <defs>
      <clipPath id="a">
        <path fill="#fff" d="M0 0h72v72H0z" />
      </clipPath>
    </defs>
  </symbol>
  <symbol id="quick-vod" viewBox="0 0 96 30">
    <rect width="96" height="30" fill="#C73E4E" rx="4" />
    <path
      fill="#fff"
      d="M14.344 17.453l1.672 2.188a3.602 3.602 0 0 1-1.203.203c-2.047-.008-3.633-1.586-3.641-4.5.008-2.922 1.594-4.5 3.64-4.5 2.047 0 3.633 1.578 3.641 4.5-.008 1.687-.539 2.93-1.383 3.672l-1.195-1.563h-1.531zm-4.531-2.11c-.008 3.579 2.093 5.813 5 5.813.734 0 1.421-.14 2.03-.414l.985 1.32h1.531l-1.476-1.968c1.203-.992 1.937-2.633 1.93-4.75.007-3.578-2.102-5.813-5-5.813-2.907 0-5.008 2.235-5 5.813zm17.25 2.173c-.008 1.586-1.211 2.304-2.172 2.297-1.086.007-1.844-.782-1.844-2v-5.297h-1.344v5.39c-.008 2.157 1.14 3.203 2.75 3.203 1.274 0 2.117-.687 2.516-1.547h.093V21h1.329v-8.484h-1.328v5zM30.547 21h1.344v-8.484h-1.344V21zm-.266-10.781c-.008.492.422.89.938.89.515 0 .945-.398.953-.89-.008-.5-.438-.899-.953-.89-.516-.009-.946.39-.938.89zM37.5 21.172c1.883.008 3.133-1.156 3.344-2.672H39.5c-.234.93-1 1.469-2 1.469-1.54 0-2.523-1.258-2.531-3.219.008-1.906 1.015-3.156 2.531-3.156 1.133 0 1.805.71 2 1.484h1.344c-.211-1.601-1.57-2.672-3.375-2.672-2.305 0-3.844 1.813-3.844 4.39 0 2.548 1.469 4.384 3.875 4.376zm5-.172h1.344v-3.164l.898-.836 3.149 4h1.703l-3.844-4.852 3.578-3.632h-1.656L44 16.266h-.156V9.688H42.5V21zM55.469 9.687h-1.485L58.125 21h1.484L63.75 9.687h-1.484l-3.344 9.485h-.125l-3.328-9.485zm18.828 5.657c.008-3.578-2.102-5.813-5-5.813-2.906 0-5.008 2.235-5 5.813-.008 3.578 2.094 5.812 5 5.812 2.898 0 5.008-2.234 5-5.812zm-8.64 0c.007-2.922 1.593-4.5 3.64-4.5s3.633 1.578 3.64 4.5c-.007 2.914-1.593 4.492-3.64 4.5-2.047-.008-3.633-1.586-3.64-4.5zM79.874 21c3.445 0 5.39-2.14 5.39-5.672 0-3.523-1.945-5.64-5.25-5.64H76.36V21h3.516zm-2.11-1.25v-8.813h2.157c2.633 0 3.969 1.657 3.969 4.391 0 2.742-1.336 4.422-4.11 4.422h-2.015z"
    />
  </symbol>
  <symbol id="profile-edit-pencil" viewBox="0 0 60 60">
    <g clip-path="url(#a)">
      <path
        fill="#fff"
        d="M10.27 41.885l-1.036 9.131h9.102L45.18 24.172l-9.102-9.102-25.809 26.815zm39.109-21.913a6.436 6.436 0 1 0-9.102-9.102l-1.602 1.602 9.102 9.102 1.602-1.602z"
      />
    </g>
    <defs>
      <clipPath id="a">
        <path fill="#fff" d="M0 0h60v60H0z" />
      </clipPath>
    </defs>
  </symbol>
  <symbol id="search-default" viewBox="0 0 40 40" fill="none">
    <g stroke="currentColor" stroke-width="1.5" clip-path="url(#a)" >
      <path
        stroke-linecap="round"
        stroke-miterlimit="10"
        d="M26.697 27.963l6.876 6.986"
      />
      <path d="M18.572 30.358c6.509 0 11.785-5.276 11.785-11.785 0-6.51-5.276-11.786-11.785-11.786-6.51 0-11.786 5.277-11.786 11.786 0 6.509 5.277 11.785 11.786 11.785z" />
    </g>
    <defs>
      <clipPath id="a" >
        <path fill="#fff" d="M0 0h40v40H0z"  />
      </clipPath>
    </defs>
  </symbol>
  <symbol id="paramount-hover" viewBox="0 0 112 34">
    <g fill="#fff" fill-rule="evenodd" clip-path="url(#a)" clip-rule="evenodd">
      <path d="M29.666 11.452c0-4.392-4.645-6.493-10.166-6.493-5.9 0-11.305 2.602-13.29 6.667a7.68 7.68 0 0 0-.85 3.509 5.275 5.275 0 0 0 .85 2.954 5.212 5.212 0 0 0 4.615 2.047c2.717 0 4.907-1.492 4.907-4.123a.724.724 0 0 0-.817-.73c-.702 0-.876.497-.85.73a3.277 3.277 0 0 1-3.298 3.713c-2.424 0-3.447-2.076-3.447-4.298 0-4.533 3.418-7.515 6.953-8.831a14.326 14.326 0 0 1 5.199-.907c4.032 0 7.303 1.55 7.303 5.667a6.894 6.894 0 0 1-6.375 6.666l.142-.467a24.597 24.597 0 0 1 3.009-7.367 3.16 3.16 0 0 1 .38-.527l-.205-.233a5.88 5.88 0 0 0-.877.614c-6.658 5.177-6.865 19.798-15.716 19.798a4.55 4.55 0 0 1-.905-.058 3.098 3.098 0 0 1-2.834-3.275c0-.322.118-.79.118-1.053a.893.893 0 0 0-.877-.936h-.078c-.79 0-1.11.643-1.133 1.52-.058 2.602 1.841 4.094 4.79 4.392.322 0 .644.03.992.03 6.924 0 11.16-5.235 12.971-11.58a16.935 16.935 0 0 0 2.692-.585c3.213-.877 6.8-3.042 6.8-6.843m38.799 6.509a15.939 15.939 0 0 1-2.6 6.406c-.526.79-.992.992-1.401.992-.584 0-.73-.468-.643-1.133a15.619 15.619 0 0 1 2.482-5.935c.643-.877 1.05-1.228 1.548-1.228.468 0 .614.41.614.907M41.54 24.694c-.35 0-.613-.117-.613-.585a10.838 10.838 0 0 1 2.248-5.028 4.37 4.37 0 0 1 3.213-2.045l-1.547 3.45c-1.169 2.66-2.366 4.208-3.301 4.208m-15.187 0c-.35 0-.583-.117-.583-.585a11.475 11.475 0 0 1 2.248-5.028 4.37 4.37 0 0 1 3.213-2.045l-1.519 3.45c-1.169 2.6-2.424 4.208-3.359 4.208zM95.54 12.973h-2.454l-.526 1.286-.963 2.163h-1.133l-.35.731h1.197l-1.431 3.128c-1.023 2.222-2.6 4.392-3.505 4.392-.204 0-.321-.088-.321-.292.033-.325.122-.64.263-.935.292-.673.76-1.638 1.11-2.367a11.786 11.786 0 0 0 1.314-3.42 1.366 1.366 0 0 0-1.489-1.432 4.349 4.349 0 0 0-3.067 1.666l.613-1.462h-2.311l-1.87 4.238c-.73 1.503-2.249 3.983-3.212 3.983-.204 0-.292-.118-.292-.322a1.77 1.77 0 0 1 .142-.525c.087-.176 1.197-2.807 1.197-2.807l2.014-4.648h-2.453l-1.984 4.533c-.583 1.403-2.125 3.771-3.125 3.771a.307.307 0 0 1-.32-.167.304.304 0 0 1-.03-.124v-.058c.048-.357.157-.703.322-1.023l1.023-2.28 2.125-4.648H73.57l-.468 1.053a2.395 2.395 0 0 1-1.956 1.55c-.468 0-.701-.176-.788-.352a2.416 2.416 0 0 0-2.6-2.397 5.223 5.223 0 0 0-4.41 2.66 11.848 11.848 0 0 0-1.46 3.217c-.875 1.432-1.782 2.55-2.512 2.55a.284.284 0 0 1-.321-.322c.058-.344.167-.678.321-.992l1.607-3.42a6.98 6.98 0 0 0 .76-2.426 1.238 1.238 0 0 0-1.344-1.257 4.896 4.896 0 0 0-3.417 1.754c.048-.17.068-.348.058-.526a1.094 1.094 0 0 0-1.255-1.228 4.335 4.335 0 0 0-3.125 1.754l.642-1.578h-2.22l-1.899 4.267c-.905 1.983-2.336 3.975-3.153 3.975-.176 0-.292-.088-.292-.322.124-.596.32-1.175.584-1.724l2.512-5.666c.175-.44-1.023-.709-2.542-.709A7.062 7.062 0 0 0 41.939 18a3.892 3.892 0 0 1-1.752 1.023c-.142 0-.204-.088-.204-.176 0-.351.817-1.314.817-2.075 0-.352-.176-.556-.643-.556a4.344 4.344 0 0 0-2.716 1.724l.643-1.55h-2.19l-1.859 4.263c-.905 1.984-2.394 4.093-3.183 4.093-.204 0-.321-.117-.321-.351a6.806 6.806 0 0 1 .643-1.812l2.482-5.667c.175-.439-1.023-.708-2.54-.708a7.429 7.429 0 0 0-5.578 3.098 9.258 9.258 0 0 0-2.19 4.94 1.685 1.685 0 0 0 1.81 1.9 4.27 4.27 0 0 0 3.096-1.9 3.01 3.01 0 0 0-.088.497c0 .82.322 1.403 1.315 1.403a4.348 4.348 0 0 0 2.954-1.897l-.73 1.724h2.366l2.33-5.287c.76-1.724 1.635-2.601 1.869-2.601.088 0 .141.03.141.088 0 .175-.38.673-.38 1.11 0 .438.235.79.906.79a3.216 3.216 0 0 0 1.577-.556 8.758 8.758 0 0 0-2.015 4.736 1.66 1.66 0 0 0 1.81 1.9 4.675 4.675 0 0 0 3.126-2.046 3.974 3.974 0 0 0-.058.585 1.342 1.342 0 0 0 1.373 1.462c1.023 0 1.81-.643 2.833-1.87l-.76 1.7h2.454l2.22-5.057c.964-2.192 2.308-3.362 2.95-3.362.141-.03.292.118.321.264v.058a3.01 3.01 0 0 1-.204.73l-3.213 7.396h2.512l2.248-5.144c.992-2.222 2.074-3.304 2.862-3.304.262 0 .35.118.35.38-.02.283-.088.56-.204.819l-2.19 4.675a4 4 0 0 0-.38 1.402c0 .731.38 1.345 1.489 1.345 1.401 0 2.482-1.081 3.709-2.661v.322a2.407 2.407 0 0 0 2.692 2.397c2.248 0 4.03-1.52 5.14-3.976.403-.87.67-1.796.788-2.748.245.12.517.169.788.142.369.017.734-.075 1.051-.264l-.38.85c-.437.935-.935 1.958-1.314 2.834a4.534 4.534 0 0 0-.438 1.637 1.39 1.39 0 0 0 1.489 1.52 5.059 5.059 0 0 0 3.33-2.25c-.06.268-.09.543-.089.818 0 .731.234 1.432 1.227 1.432a4.151 4.151 0 0 0 2.975-1.93l-.73 1.7h2.454l1.957-4.472c1.109-2.514 2.22-4.034 3.27-4.034a.348.348 0 0 1 .35.292v.087c-.28.95-.673 1.862-1.168 2.719a51.02 51.02 0 0 0-1.133 2.513 4.154 4.154 0 0 0-.438 1.666 1.258 1.258 0 0 0 1.373 1.374 5.308 5.308 0 0 0 3.62-2.426 4.8 4.8 0 0 0-.262 1.55 1.914 1.914 0 0 0 2.045 2.133 3.874 3.874 0 0 0 2.22-.731 10.463 10.463 0 0 0 2.307-2.513l-.437-.41a9.579 9.579 0 0 1-1.899 2.105c-.35.303-.792.478-1.255.498-.526 0-.85-.264-.85-.907a8.442 8.442 0 0 1 .79-2.719s.67-1.52 1.314-2.952c.525-1.228 1.051-2.397 1.133-2.63h1.607l.321-.732H94.02l1.52-3.446zm10.768 3.46l2.229-5.189h-2.641l-2.256 5.19h-5.587l-.949 2.164h5.609l-2.226 5.13h2.641l2.255-5.13h5.609l.919-2.165h-5.603z" />
    </g>
    <defs>
      <clipPath id="a">
        <path fill="#fff" d="M0 0h111.92v34H0z" />
      </clipPath>
    </defs>
  </symbol>
  <symbol id="search-hover" viewBox="0 0 40 40">
    <g stroke="#fff" stroke-width="1.5" clip-path="url(#a)">
      <path
        stroke-linecap="round"
        stroke-miterlimit="10"
        d="M26.697 27.963l6.876 6.986"
      />
      <path d="M18.572 30.358c6.509 0 11.785-5.276 11.785-11.785 0-6.51-5.276-11.786-11.785-11.786-6.51 0-11.786 5.277-11.786 11.786 0 6.509 5.277 11.785 11.786 11.785z" />
    </g>
    <defs>
      <clipPath id="a">
        <path fill="#fff" d="M0 0h40v40H0z" />
      </clipPath>
    </defs>
  </symbol>
  <symbol id="pw-hide" viewBox="0 0 36 36">
    <g fill="#A6A6A6" clip-path="url(#a)">
      <path d="M29.013 11.938L24.5 16.45a6.639 6.639 0 0 1-8.046 8.05l-3.066 3.066c1.498.444 3.051.67 4.614.671a17.973 17.973 0 0 0 15.777-10.235 20.102 20.102 0 0 0-4.766-6.066zm.926-7.403L25.083 9.39a16.362 16.362 0 0 0-7.081-1.626A17.973 17.973 0 0 0 2.223 18a19.582 19.582 0 0 0 6.737 7.514l-5.95 5.95h3.055L32.993 4.535h-3.055zM18 14.625a3.353 3.353 0 0 0-3.016 4.862l-2.4 2.4a6.56 6.56 0 0 1-1.28-3.886A6.696 6.696 0 0 1 18 11.305a6.56 6.56 0 0 1 3.885 1.28l-2.4 2.4a3.328 3.328 0 0 0-1.483-.36z" />
    </g>
    <defs>
      <clipPath id="a">
        <path fill="#fff" d="M0 0h36v36H0z" />
      </clipPath>
    </defs>
  </symbol>
  <symbol id="twitter" viewBox="0 0 52 52">
    <rect width="52" height="52" fill="#2B2B2B" rx="26" />
    <g clip-path="url(#a)">
      <path
        fill="currentColor"
        d="M38.71 19.483c.02.284.02.569.02.853 0 8.67-6.598 18.66-18.659 18.66A18.533 18.533 0 0 1 10 36.05c.528.061 1.036.082 1.584.082 3.066 0 5.888-1.036 8.142-2.802a6.57 6.57 0 0 1-6.132-4.549c.406.061.812.102 1.239.102a6.94 6.94 0 0 0 1.725-.223 6.56 6.56 0 0 1-5.259-6.437v-.081a6.606 6.606 0 0 0 2.965.832 6.554 6.554 0 0 1-2.924-5.462 6.51 6.51 0 0 1 .893-3.31 18.642 18.642 0 0 0 13.523 6.864 7.403 7.403 0 0 1-.162-1.503 6.555 6.555 0 0 1 6.558-6.558c1.889 0 3.594.792 4.792 2.07a12.911 12.911 0 0 0 4.162-1.583 6.542 6.542 0 0 1-2.883 3.614A13.15 13.15 0 0 0 42 16.092a14.1 14.1 0 0 1-3.29 3.391z"
      />
    </g>
    <defs>
      <clipPath id="a">
        <path fill="#fff" d="M0 0h32v32H0z" transform="translate(10 10)" />
      </clipPath>
    </defs>
  </symbol>
  <symbol id="symbol-logo" viewBox="0 0 63 63">
    <path d="M4 32.474v-12.99h54.557L44.268 63H17.639V32.474H4z" />
    <path fill="#fff" d="M31.278 49.36V0h16.887L31.278 49.36z" />
    <path fill="#61D4E6" d="M41.67 19.484H31.278v29.877L41.67 19.484z" />
  </symbol>
  <symbol id="progress-bar" viewBox="0 0 345 4">
    <path fill="#FF153C" d="M0 0h176v4H0z" />
  </symbol>
  <symbol id="youtube" viewBox="0 0 52 52">
    <rect width="52" height="52" fill="#2B2B2B" rx="26" />
    <path
      fill="currentColor"
      d="M40.99 18.27c-.36-1.385-1.42-2.477-2.766-2.847C35.784 14.75 26 14.75 26 14.75s-9.784 0-12.224.673c-1.347.37-2.407 1.462-2.767 2.847-.654 2.512-.654 7.753-.654 7.753s0 5.24.654 7.752a3.917 3.917 0 0 0 2.767 2.802c2.44.673 12.224.673 12.224.673s9.784 0 12.224-.673a3.917 3.917 0 0 0 2.767-2.802c.653-2.512.653-7.752.653-7.752s0-5.24-.653-7.753zM22.8 30.78v-9.515l8.178 4.758L22.8 30.78z"
    />
  </symbol>
  <symbol id="delete-filled" viewBox="0 0 14 14">
    <g clip-path="url(#a)" opacity=".3">
      <path fill="#fff" d="M7 14A7 7 0 1 0 7 0a7 7 0 0 0 0 14z" />
      <path d="M9.553 10a.445.445 0 0 1-.316-.131L4.131 4.763a.447.447 0 0 1 .632-.632L9.87 9.237a.447.447 0 0 1-.316.763z" />
      <path d="M4.447 10A.445.445 0 0 1 4 9.553c0-.119.047-.232.131-.316L9.237 4.13a.447.447 0 0 1 .632.632L4.763 9.869a.445.445 0 0 1-.316.13z" />
    </g>
    <defs>
      <clipPath id="a">
        <path fill="#fff" d="M0 0h14v14H0z" />
      </clipPath>
    </defs>
  </symbol>
  <symbol id="delete-not-filled" viewBox="0 0 15 15">
    <g fill="#fff" opacity=".5">
      <path d="M14.317 14.987a.68.68 0 0 1-.482-.2L.2 1.153A.682.682 0 0 1 1.163.19L14.8 13.826a.683.683 0 0 1-.483 1.164v-.003z" />
      <path d="M.682 14.988a.679.679 0 0 1-.482-.2.682.682 0 0 1 0-.965L13.836.19a.683.683 0 0 1 .965.965L1.163 14.79a.68.68 0 0 1-.48.198z" />
    </g>
  </symbol>
    <symbol id="play-button" viewBox="0 0 13 15">
    <path fill="#fff" d="M13 7.5L.25 14.861V.14L13 7.5z" />
  </symbol>
  <symbol id="pause-button" viewBox="0 0 18 18">
    <path fill="#fff" d="M2 1h5v16H2zm9 0h5v16h-5z" />
  </symbol>
  <symbol
  id="profile-plus"
  viewBox="0 0 30 30"
  fill="none"
>
  <path d="M0 15H30" stroke="#565656" />
  <path d="M15 30L15 -8.9407e-07" stroke="#565656" />
</symbol>
</svg>

